<svg width="41" height="35" viewBox="0 0 41 35" fill="none" xmlns="http://www.w3.org/2000/svg">
<path d="M30.75 13.125C30.266 13.125 29.8605 12.985 29.5337 12.705C29.2068 12.425 29.0428 12.0789 29.0417 11.6667V10.2083H27.3333C26.8493 10.2083 26.4439 10.0683 26.117 9.78834C25.7901 9.50834 25.6261 9.16223 25.625 8.75C25.6239 8.33778 25.7879 7.99167 26.117 7.71167C26.4461 7.43167 26.8516 7.29167 27.3333 7.29167H29.0417V5.83334C29.0417 5.42014 29.2057 5.07403 29.5337 4.79501C29.8617 4.51598 30.2671 4.37598 30.75 4.37501C31.2329 4.37403 31.6389 4.51403 31.968 4.79501C32.2972 5.07598 32.4606 5.42209 32.4583 5.83334V7.29167H34.1667C34.6507 7.29167 35.0567 7.43167 35.3847 7.71167C35.7127 7.99167 35.8761 8.33778 35.875 8.75C35.8739 9.16223 35.7099 9.50882 35.383 9.7898C35.0561 10.0708 34.6507 10.2103 34.1667 10.2083H32.4583V11.6667C32.4583 12.0799 32.2943 12.4265 31.9663 12.7065C31.6383 12.9865 31.2329 13.126 30.75 13.125ZM11.9583 24.7917H29.0417C29.3833 24.7917 29.6396 24.658 29.8104 24.3906C29.9813 24.1233 29.9528 23.8681 29.725 23.625L25.0271 18.2656C24.8562 18.0712 24.6285 17.974 24.3438 17.974C24.059 17.974 23.8313 18.0712 23.6604 18.2656L19.2188 23.3333L16.0583 19.724C15.8875 19.5295 15.6597 19.4323 15.375 19.4323C15.0903 19.4323 14.8625 19.5295 14.6917 19.724L11.275 23.625C11.0472 23.8681 11.0188 24.1233 11.1896 24.3906C11.3604 24.658 11.6167 24.7917 11.9583 24.7917ZM8.54167 30.625C7.60208 30.625 6.79803 30.3392 6.1295 29.7675C5.46097 29.1958 5.12614 28.5095 5.125 27.7083V7.29167C5.125 6.48959 5.45983 5.8032 6.1295 5.23251C6.79917 4.66181 7.60322 4.37598 8.54167 4.37501H22.2083C22.6924 4.37501 23.0984 4.51501 23.4264 4.79501C23.7544 5.07501 23.9178 5.42112 23.9167 5.83334V10.2083C23.9167 10.6215 24.0807 10.9681 24.4087 11.2481C24.7367 11.5281 25.1421 11.6676 25.625 11.6667H27.3333V13.125C27.3333 13.5382 27.4973 13.8848 27.8253 14.1648C28.1533 14.4448 28.5588 14.5843 29.0417 14.5833H34.1667C34.6507 14.5833 35.0567 14.7233 35.3847 15.0033C35.7127 15.2833 35.8761 15.6295 35.875 16.0417V27.7083C35.875 28.5104 35.5407 29.1973 34.8722 29.769C34.2037 30.3406 33.3991 30.626 32.4583 30.625H8.54167Z" fill="black"/>
</svg>
