<svg width="24" height="24" viewBox="0 0 24 24" fill="none" xmlns="http://www.w3.org/2000/svg">
<path d="M16.3398 9.322C16.4358 9.23244 16.5133 9.12483 16.5678 9.00533C16.6223 8.88582 16.6527 8.75676 16.6573 8.6255C16.6619 8.49425 16.6406 8.36337 16.5946 8.24035C16.5486 8.11732 16.4788 8.00456 16.3893 7.9085C16.2997 7.81244 16.1921 7.73496 16.0726 7.68048C15.9531 7.62601 15.824 7.5956 15.6928 7.591C15.5615 7.58641 15.4306 7.60771 15.3076 7.65369C15.1846 7.69967 15.0718 7.76944 14.9758 7.859L12.0498 10.587L9.32176 7.66C9.13923 7.47304 8.89078 7.36496 8.62956 7.35887C8.36834 7.35277 8.11512 7.44916 7.92407 7.62741C7.73302 7.80565 7.61932 8.05159 7.6073 8.3126C7.59529 8.57361 7.6859 8.82895 7.85977 9.024L10.5878 11.95L7.66077 14.678C7.56131 14.7667 7.48057 14.8743 7.4233 14.9946C7.36602 15.1149 7.33336 15.2454 7.32723 15.3785C7.3211 15.5116 7.34163 15.6446 7.38761 15.7696C7.43359 15.8946 7.5041 16.0092 7.59498 16.1067C7.68587 16.2041 7.79531 16.2823 7.91687 16.3369C8.03843 16.3914 8.16966 16.4211 8.30286 16.4242C8.43605 16.4273 8.56853 16.4038 8.6925 16.355C8.81647 16.3062 8.92944 16.2331 9.02476 16.14L11.9508 13.413L14.6788 16.339C14.7668 16.4403 14.8744 16.5228 14.9951 16.5816C15.1157 16.6405 15.247 16.6744 15.381 16.6814C15.5151 16.6885 15.6492 16.6684 15.7753 16.6225C15.9015 16.5766 16.0171 16.5058 16.1153 16.4142C16.2134 16.3227 16.2922 16.2123 16.3468 16.0897C16.4014 15.9671 16.4308 15.8347 16.4332 15.7005C16.4356 15.5663 16.4109 15.433 16.3607 15.3085C16.3104 15.184 16.2356 15.071 16.1408 14.976L13.4138 12.05L16.3398 9.322Z" fill="white"/>
<path fill-rule="evenodd" clip-rule="evenodd" d="M1 12C1 5.925 5.925 1 12 1C18.075 1 23 5.925 23 12C23 18.075 18.075 23 12 23C5.925 23 1 18.075 1 12ZM12 21C10.8181 21 9.64778 20.7672 8.55585 20.3149C7.46392 19.8626 6.47177 19.1997 5.63604 18.364C4.80031 17.5282 4.13738 16.5361 3.68508 15.4442C3.23279 14.3522 3 13.1819 3 12C3 10.8181 3.23279 9.64778 3.68508 8.55585C4.13738 7.46392 4.80031 6.47177 5.63604 5.63604C6.47177 4.80031 7.46392 4.13738 8.55585 3.68508C9.64778 3.23279 10.8181 3 12 3C14.3869 3 16.6761 3.94821 18.364 5.63604C20.0518 7.32387 21 9.61305 21 12C21 14.3869 20.0518 16.6761 18.364 18.364C16.6761 20.0518 14.3869 21 12 21Z" fill="white"/>
</svg>
