<svg width="27" height="27" viewBox="0 0 27 27" fill="none" xmlns="http://www.w3.org/2000/svg">
<path d="M4.5 4.5C3.90326 4.5 3.33097 4.73705 2.90901 5.15901C2.48705 5.58097 2.25 6.15326 2.25 6.75V11.25C2.84674 11.25 3.41903 11.4871 3.84099 11.909C4.26295 12.331 4.5 12.9033 4.5 13.5C4.5 14.0967 4.26295 14.669 3.84099 15.091C3.41903 15.5129 2.84674 15.75 2.25 15.75V20.25C2.25 20.8467 2.48705 21.419 2.90901 21.841C3.33097 22.2629 3.90326 22.5 4.5 22.5H22.5C23.0967 22.5 23.669 22.2629 24.091 21.841C24.5129 21.419 24.75 20.8467 24.75 20.25V15.75C24.1533 15.75 23.581 15.5129 23.159 15.091C22.7371 14.669 22.5 14.0967 22.5 13.5C22.5 12.9033 22.7371 12.331 23.159 11.909C23.581 11.4871 24.1533 11.25 24.75 11.25V6.75C24.75 6.15326 24.5129 5.58097 24.091 5.15901C23.669 4.73705 23.0967 4.5 22.5 4.5H4.5ZM17.4375 7.875L19.125 9.5625L9.5625 19.125L7.875 17.4375L17.4375 7.875ZM9.91125 7.92C11.0138 7.92 11.9025 8.80875 11.9025 9.91125C11.9025 10.4394 11.6927 10.9458 11.3193 11.3193C10.9458 11.6927 10.4394 11.9025 9.91125 11.9025C8.80875 11.9025 7.92 11.0138 7.92 9.91125C7.92 9.38314 8.12979 8.87666 8.50322 8.50322C8.87666 8.12979 9.38314 7.92 9.91125 7.92ZM17.0887 15.0975C18.1912 15.0975 19.08 15.9862 19.08 17.0887C19.08 17.6169 18.8702 18.1233 18.4968 18.4968C18.1233 18.8702 17.6169 19.08 17.0887 19.08C15.9862 19.08 15.0975 18.1912 15.0975 17.0887C15.0975 16.5606 15.3073 16.0542 15.6807 15.6807C16.0542 15.3073 16.5606 15.0975 17.0887 15.0975Z" fill="#42D30F"/>
</svg>
