<svg width="18" height="21" viewBox="0 0 18 21" fill="none" xmlns="http://www.w3.org/2000/svg">
<path d="M7.06164 16.9688H17.1241V18.4062H7.06164V16.9688ZM2.15258 17.6875L0.298203 19.5419L1.31164 20.5625L4.18664 17.6875L1.31164 14.8125L0.291016 15.8259L2.15258 17.6875ZM7.06164 9.78125H17.1241V11.2188H7.06164V9.78125ZM2.15258 10.5L0.298203 12.3544L1.31164 13.375L4.18664 10.5L1.31164 7.625L0.291016 8.63844L2.15258 10.5ZM7.06164 2.59375H17.1241V4.03125H7.06164V2.59375ZM2.15258 3.3125L0.298203 5.16687L1.31164 6.1875L4.18664 3.3125L1.31164 0.4375L0.291016 1.45094L2.15258 3.3125Z" fill="#42D30F"/>
</svg>
