<svg width="29" height="29" viewBox="0 0 29 29" fill="none" xmlns="http://www.w3.org/2000/svg">
<g clip-path="url(#clip0_80_552)">
<path d="M20.8437 7.25H20.8488H20.8437ZM27.1619 5.4375H22.0042L22.5095 3.4177L24.6799 2.67854C25.1416 2.52164 25.4163 2.03113 25.2832 1.56215C25.2493 1.44417 25.1918 1.33431 25.1142 1.23921C25.0366 1.14412 24.9405 1.06578 24.8317 1.00895C24.7229 0.95212 24.6037 0.91798 24.4813 0.908602C24.359 0.899224 24.2359 0.914803 24.1198 0.954395L21.4577 1.86065C21.3143 1.90953 21.1855 1.99357 21.083 2.10508C20.9804 2.2166 20.9075 2.35202 20.8709 2.49899L20.1362 5.4375H12.7129C12.2252 5.4375 11.8067 5.81246 11.7823 6.30014C11.7764 6.42267 11.7954 6.54513 11.8383 6.66009C11.8811 6.77505 11.9468 6.88012 12.0314 6.96893C12.116 7.05774 12.2178 7.12844 12.3306 7.17676C12.4433 7.22507 12.5647 7.24999 12.6874 7.25H12.8432L12.8998 7.74051C12.9132 7.85506 12.9681 7.96071 13.0543 8.03736C13.1405 8.11402 13.2518 8.15633 13.3671 8.15625C15.5761 8.15625 17.5393 8.77363 19.038 9.94156C19.8716 10.5839 20.5473 11.4082 21.0136 12.3516C21.2746 12.8823 21.4672 13.4439 21.5868 14.0231C21.6106 14.1359 21.6774 14.2351 21.7731 14.2995C22.5437 14.8223 23.112 15.593 23.3839 16.4836C23.6557 17.3742 23.6146 18.331 23.2673 19.1949C23.2269 19.2949 23.2239 19.4061 23.2588 19.5082C23.4595 20.0832 23.5621 20.6878 23.5624 21.2969C23.5624 22.5622 23.1319 23.7681 22.3503 24.6925C21.9072 25.2201 21.3497 25.6398 20.7202 25.9199C20.6113 25.9679 20.5256 26.0568 20.4817 26.1674C20.2465 26.7802 19.9143 27.3513 19.4979 27.8587C19.4806 27.8793 19.4694 27.9044 19.4659 27.9311C19.4623 27.9577 19.4664 27.9849 19.4777 28.0093C19.489 28.0337 19.507 28.0544 19.5296 28.069C19.5523 28.0835 19.5786 28.0913 19.6055 28.0915H22.3928C23.0752 28.0887 23.7319 27.8305 24.2335 27.3678C24.7351 26.9051 25.0453 26.2714 25.103 25.5914L27.0402 7.25H27.1874C27.3102 7.25014 27.4317 7.22534 27.5446 7.17709C27.6575 7.12885 27.7594 7.05816 27.8442 6.96934C27.9289 6.88051 27.9947 6.77539 28.0376 6.66035C28.0805 6.54532 28.0996 6.42277 28.0937 6.30014C28.0699 5.81246 27.6496 5.4375 27.1619 5.4375Z" fill="#C69B6F"/>
<path d="M6.15627 18.125C6.33501 18.1242 6.51214 18.1588 6.67742 18.2268C6.8427 18.2949 6.99284 18.395 7.11916 18.5215L7.99766 19.4C8.0187 19.421 8.04369 19.4378 8.07119 19.4492C8.0987 19.4606 8.12818 19.4664 8.15795 19.4664C8.18772 19.4664 8.21721 19.4606 8.24471 19.4492C8.27221 19.4378 8.2972 19.421 8.31824 19.4L9.19504 18.5215C9.32136 18.395 9.4715 18.2949 9.63678 18.2268C9.80206 18.1588 9.97919 18.1242 10.1579 18.125H21.2923C21.3519 18.1256 21.4109 18.1145 21.4661 18.0922C21.5213 18.07 21.5716 18.0371 21.6141 17.9955C21.6566 17.9538 21.6905 17.9042 21.7138 17.8495C21.7371 17.7947 21.7494 17.7359 21.75 17.6764V17.6719C21.7494 17.1498 21.5687 16.6439 21.2386 16.2394C20.9084 15.835 20.4489 15.5567 19.9375 15.4516C19.8911 13.7699 19.2012 12.3624 17.9262 11.3734C16.7469 10.4536 15.1712 9.96875 13.3672 9.96875H9.28906C5.42504 9.96875 2.80768 12.1647 2.71875 15.4516C2.20735 15.5567 1.74784 15.835 1.41768 16.2394C1.08751 16.6439 0.906889 17.1498 0.906251 17.6719C0.906251 17.7921 0.953991 17.9073 1.03897 17.9923C1.12395 18.0773 1.2392 18.125 1.35938 18.125H6.15627ZM10.5318 19.9375C10.4722 19.9375 10.4133 19.9491 10.3583 19.9719C10.3033 19.9946 10.2533 20.028 10.2112 20.07L8.95715 21.3246C8.74472 21.537 8.45663 21.6563 8.15625 21.6563C7.85587 21.6563 7.56779 21.537 7.35535 21.3246L6.10133 20.07C6.05922 20.028 6.00923 19.9946 5.95422 19.9719C5.89921 19.9491 5.84027 19.9375 5.78074 19.9375H1.84988C1.637 19.9366 1.43064 20.0109 1.26729 20.1474C1.10394 20.2839 0.994109 20.4738 0.957228 20.6835C0.923142 20.8861 0.906091 21.0913 0.906251 21.2969C0.906251 23.0295 2.10307 24.441 3.58309 24.4688C3.72072 25.3252 4.05377 26.0989 4.55504 26.7044C5.29647 27.5998 6.37434 28.0938 7.58985 28.0938H15.0664C16.2819 28.0938 17.3598 27.5998 18.1012 26.7032C18.6025 26.0977 18.9355 25.324 19.0732 24.4676C20.5532 24.441 21.75 23.0295 21.75 21.2957C21.7502 21.0902 21.7331 20.885 21.699 20.6823C21.6619 20.4729 21.552 20.2833 21.3886 20.147C21.2253 20.0107 21.0191 19.9365 20.8064 19.9375H10.5318Z" fill="#C69B6F"/>
</g>
<defs>
<clipPath id="clip0_80_552">
<rect width="29" height="29" fill="white"/>
</clipPath>
</defs>
</svg>
