<svg width="32" height="32" viewBox="0 0 32 32" fill="none" xmlns="http://www.w3.org/2000/svg">
<path d="M25.2292 16.3315C27.7226 16.3315 29.7447 14.3174 29.7447 11.832C29.7447 9.34721 27.7226 7.33249 25.2292 7.33249C22.7338 7.33249 20.7114 9.34753 20.7114 11.832C20.7111 14.3174 22.7338 16.3315 25.2292 16.3315Z" fill="black"/>
<path d="M15.0547 17.1648C17.2997 17.1648 19.1197 15.3516 19.1197 13.1149C19.1197 10.8782 17.2997 9.06497 15.0547 9.06497C12.8097 9.06497 10.9897 10.8782 10.9897 13.1149C10.9897 15.3516 12.8097 17.1648 15.0547 17.1648Z" fill="black"/>
<path d="M5.82842 17.9149C7.84858 17.9149 9.48698 16.2842 9.48698 14.2714C9.48698 12.2579 7.84858 10.6266 5.82842 10.6266C3.80762 10.6266 2.16986 12.2579 2.16986 14.2714C2.16986 16.2845 3.8073 17.9149 5.82842 17.9149ZM5.82842 18.7472C3.50842 18.7472 1.80762 20.7834 1.80762 22.8867V24.3027C1.80762 24.503 1.97146 24.6675 2.17306 24.6675H9.48282C9.68506 24.6675 9.8489 24.503 9.8489 24.3027V22.8867C9.8489 20.7834 8.1481 18.7472 5.82842 18.7472ZM15.0547 18.0883C12.4771 18.0883 10.5868 20.351 10.5868 22.6886V24.2621C10.5868 24.4845 10.7689 24.6675 10.9929 24.6675H19.1151C19.2228 24.6676 19.3261 24.625 19.4024 24.5489C19.4786 24.4729 19.5216 24.3697 19.5219 24.2621V22.6886C19.5222 20.3514 17.6323 18.0883 15.0547 18.0883ZM25.2284 17.3578C22.3644 17.3578 20.2646 19.8717 20.2646 22.4694V24.2173C20.2646 24.4646 20.4668 24.6675 20.7158 24.6675H29.7398C29.99 24.6675 30.1923 24.4643 30.1923 24.2173V22.4694C30.1923 19.872 28.0924 17.3578 25.2284 17.3578Z" fill="black"/>
</svg>
