<svg width="51" height="51" viewBox="0 0 51 51" fill="none" xmlns="http://www.w3.org/2000/svg">
    <path
        d="M35.7 4.25H30.175C23.375 4.25 19.125 8.5 19.125 15.3V23.9062H32.4062C33.2775 23.9062 34 24.6287 34 25.5C34 26.3713 33.2775 27.0938 32.4062 27.0938H19.125V35.7C19.125 42.5 23.375 46.75 30.175 46.75H35.6788C42.4788 46.75 46.7288 42.5 46.7288 35.7V15.3C46.75 8.5 42.5 4.25 35.7 4.25Z"
        fill="black" />
    <path
        d="M9.69201 23.9062L14.0908 19.5075C14.4095 19.1887 14.5583 18.785 14.5583 18.3812C14.5583 17.9775 14.4095 17.5525 14.0908 17.255C13.7908 16.9586 13.3862 16.7924 12.9645 16.7924C12.5428 16.7924 12.1382 16.9586 11.8383 17.255L4.71951 24.3737C4.10326 24.99 4.10326 26.01 4.71951 26.6262L11.8383 33.745C12.4545 34.3612 13.4745 34.3612 14.0908 33.745C14.707 33.1287 14.707 32.1087 14.0908 31.4925L9.69201 27.0937H19.127V23.9062H9.69201Z"
        fill="black" />
</svg>
