<svg width="33" height="33" viewBox="0 0 33 33" fill="none" xmlns="http://www.w3.org/2000/svg">
<path d="M8.00938 24.75H12.375C12.7646 24.75 13.0909 24.618 13.354 24.354C13.6171 24.09 13.7491 23.7637 13.75 23.375C13.7509 22.9863 13.6189 22.66 13.354 22.396C13.0891 22.132 12.7628 22 12.375 22H8.00938L9.2125 20.7969C9.46458 20.5219 9.59658 20.1955 9.6085 19.8179C9.62042 19.4402 9.48842 19.1134 9.2125 18.8375C8.93658 18.5616 8.61575 18.4241 8.25 18.425C7.88425 18.4259 7.56342 18.5634 7.2875 18.8375L3.7125 22.4125C3.4375 22.6875 3.3 23.0083 3.3 23.375C3.3 23.7417 3.4375 24.0625 3.7125 24.3375L7.2875 27.9125C7.5625 28.1875 7.88333 28.325 8.25 28.325C8.61667 28.325 8.9375 28.1875 9.2125 27.9125C9.4875 27.6375 9.6195 27.3112 9.6085 26.9335C9.5975 26.5558 9.4655 26.229 9.2125 25.9531L8.00938 24.75ZM22 13.75H13.75C13.3604 13.75 13.0336 13.618 12.7696 13.354C12.5056 13.09 12.3741 12.7637 12.375 12.375C12.3759 11.9863 12.5079 11.66 12.771 11.396C13.0341 11.132 13.3604 11 13.75 11H22C22.3896 11 22.7159 11.132 22.979 11.396C23.2421 11.66 23.3741 11.9863 23.375 12.375C23.3759 12.7637 23.2439 13.0905 22.979 13.3554C22.7141 13.6203 22.3878 13.7518 22 13.75ZM22 19.25H17.875C17.4854 19.25 17.1586 19.118 16.8946 18.854C16.6306 18.59 16.4991 18.2637 16.5 17.875C16.5009 17.4863 16.6329 17.16 16.896 16.896C17.1591 16.632 17.4854 16.5 17.875 16.5H22C22.3896 16.5 22.7159 16.632 22.979 16.896C23.2421 17.16 23.3741 17.4863 23.375 17.875C23.3759 18.2637 23.2439 18.5905 22.979 18.8554C22.7141 19.1203 22.3878 19.2518 22 19.25ZM24.75 24.75L27.7063 27.7062C27.9354 27.9354 28.1875 27.9927 28.4625 27.8781C28.7375 27.7635 28.875 27.5458 28.875 27.225V8.25C28.875 7.49375 28.6055 6.84658 28.0665 6.3085C27.5275 5.77042 26.8803 5.50092 26.125 5.5H9.625C8.86875 5.5 8.22112 5.7695 7.68213 6.3085C7.14313 6.8475 6.87408 7.49467 6.875 8.25V14.2313C6.875 14.5063 6.97262 14.7299 7.16787 14.9023C7.36312 15.0746 7.59779 15.1488 7.87188 15.125C9.04062 15.0792 10.1576 15.257 11.2227 15.6585C12.2879 16.06 13.2449 16.6842 14.0938 17.5312C14.9187 18.3792 15.5375 19.3362 15.95 20.4023C16.3625 21.4683 16.5458 22.5853 16.5 23.7531C16.4771 24.0281 16.5573 24.2633 16.7406 24.4585C16.924 24.6537 17.1417 24.7509 17.3937 24.75H24.75Z" fill="#42D30F"/>
</svg>
