<svg width="24" height="28" viewBox="0 0 24 28" fill="none" xmlns="http://www.w3.org/2000/svg">
<path d="M18 17.5H6L2 22.1667V3.5C2 3.19058 2.10536 2.89384 2.29289 2.67504C2.48043 2.45625 2.73478 2.33334 3 2.33334H18C18.2652 2.33334 18.5196 2.45625 18.7071 2.67504C18.8946 2.89384 19 3.19058 19 3.5V16.3333C19 16.6428 18.8946 16.9395 18.7071 17.1583C18.5196 17.3771 18.2652 17.5 18 17.5ZM23 10.5V26.8333L19 22.1667H8C7.73478 22.1667 7.48043 22.0438 7.29289 21.825C7.10536 21.6062 7 21.3094 7 21V19.8333H21V9.33334H22C22.2652 9.33334 22.5196 9.45625 22.7071 9.67504C22.8946 9.89384 23 10.1906 23 10.5ZM8.19 4.66667C7.32 4.66667 6.62 4.9 6.08 5.355C5.56 5.83334 5.3 6.49834 5.31 7.42L5.32 7.455H7.25C7.26 7.105 7.35 6.83667 7.53 6.65C7.71517 6.47085 7.9495 6.37559 8.19 6.38167C8.5 6.38167 8.76 6.49834 8.94 6.70834C9.12 6.93 9.2 7.23334 9.2 7.58334C9.2 7.95667 9.13 8.27167 8.97 8.54C8.83 8.80834 8.62 9.04167 8.36 9.22834C7.85 9.625 7.5 9.975 7.31 10.29C7.11 10.5933 7 11.0833 7 11.6667H9C9 11.305 9.04 11.0133 9.13 10.8033C9.22 10.5933 9.39 10.3833 9.64 10.1967C10.09 9.91667 10.46 9.57834 10.75 9.11167C11.04 8.645 11.19 8.16667 11.19 7.58334C11.19 6.69667 10.92 5.985 10.38 5.46C9.85 4.935 9.12 4.66667 8.19 4.66667ZM7 12.8333V15.1667H9V12.8333H7ZM13 15.1667H15V12.8333H13V15.1667ZM13 4.66667V11.6667H15V4.66667H13Z" fill="#42D30F"/>
</svg>
