<svg width="24" height="24" viewBox="0 0 24 24" fill="none" xmlns="http://www.w3.org/2000/svg">
<g clip-path="url(#clip0_80_465)">
<path d="M21.1395 13.3523L21.1441 13.3547C21.2168 12.9117 21.252 12.4594 21.252 12.0117C21.252 11.6109 21.2215 11.2078 21.1652 10.8141C21.2215 11.2055 21.2496 11.6016 21.2496 11.9977C21.2496 12.4523 21.2121 12.907 21.1395 13.3523ZM3.31992 9.33047C3.3082 9.32109 3.29883 9.31172 3.28711 9.3C3.30352 9.31641 3.31992 9.33281 3.33867 9.34922L4.87383 10.6594V10.657L3.31992 9.33047ZM15.8965 4.26797H15.8988L15.5355 2.30391C15.5309 2.28047 15.5262 2.25937 15.5191 2.23828C15.5215 2.25 15.5262 2.26406 15.5285 2.27578L15.8965 4.26797ZM17.1621 17.0766L17.898 16.4719L20.073 17.243C20.4715 16.7063 20.8066 16.1297 21.0715 15.518L19.3207 14.0203L19.4754 13.0805C19.534 12.7266 19.5645 12.3633 19.5645 12C19.5645 11.6367 19.534 11.2734 19.4754 10.9195L19.323 9.98438L21.0738 8.48672C20.8066 7.87734 20.4738 7.29844 20.0754 6.76172L17.9004 7.53281L17.1645 6.92813C16.6043 6.46875 15.9785 6.10781 15.3059 5.85469L14.4129 5.51953L13.9934 3.24609C13.3314 3.17109 12.6631 3.17109 12.0012 3.24609L11.5816 5.52422L10.6934 5.85938C10.0254 6.1125 9.4043 6.47344 8.84883 6.93047L8.11289 7.5375L5.92383 6.75937C5.52539 7.29609 5.19023 7.87266 4.92539 8.48438L6.69492 9.99609L6.54258 10.9336C6.48398 11.2828 6.45586 11.6414 6.45586 12C6.45586 12.3562 6.48633 12.7172 6.54258 13.0664L6.69492 14.0039L4.92539 15.5156C5.19258 16.125 5.52539 16.7039 5.92383 17.2406L8.11289 16.4625L8.84883 17.0695C9.4043 17.5266 10.0254 17.8875 10.6934 18.1406L11.5793 18.4805L11.9988 20.7586C12.6598 20.8336 13.3324 20.8336 13.991 20.7586L14.4105 18.4852L15.3035 18.15C15.9785 17.8969 16.602 17.5359 17.1621 17.0766ZM13.0113 15.8977C12.2965 15.8977 11.6238 15.7148 11.0355 15.3937C9.74883 14.6953 8.87461 13.3336 8.87461 11.7656C8.87461 9.4875 10.7215 7.64062 12.9996 7.64062C14.5676 7.64062 15.9293 8.51484 16.6277 9.80156C16.9488 10.3875 17.1316 11.0602 17.1316 11.7773C17.1316 14.0531 15.2871 15.8977 13.0113 15.8977ZM5.85586 19.05C5.72695 19.0945 5.59336 19.1039 5.4668 19.0781C5.60039 19.1063 5.74102 19.1016 5.87695 19.0547L7.78477 18.375C7.78242 18.3727 7.77773 18.3703 7.77539 18.368L5.85586 19.05ZM22.6746 9.33047L21.1395 10.643C21.1395 10.6477 21.1418 10.6547 21.1418 10.6594L22.6746 9.34922C22.841 9.20625 22.9348 9 22.9371 8.78672C22.9301 8.99297 22.8363 9.19219 22.6746 9.33047Z" fill="white" fill-opacity="0.15"/>
<path d="M22.932 15.1547C22.9437 15.2648 22.932 15.3773 22.8922 15.4851L22.8711 15.5461C22.4474 16.7268 21.8147 17.8216 21.0031 18.7781L20.9609 18.8273C20.8626 18.9435 20.7313 19.0271 20.5843 19.0669C20.4374 19.1066 20.2818 19.1007 20.1383 19.05L18.2328 18.3726C17.5338 18.9485 16.7442 19.4047 15.8961 19.7226L15.5281 21.7148C15.5004 21.8647 15.4276 22.0026 15.3196 22.1102C15.2116 22.2178 15.0734 22.29 14.9234 22.3172L14.8602 22.3289C14.2476 22.4396 13.6264 22.4953 13.0039 22.4953H13.0109C13.6367 22.4953 14.2625 22.439 14.8719 22.3289L14.9352 22.3172C15.0852 22.29 15.2234 22.2178 15.3314 22.1102C15.4394 22.0026 15.5121 21.8647 15.5398 21.7148L15.9078 19.725C16.7562 19.4062 17.5391 18.9539 18.2422 18.3773L20.1453 19.0547C20.2888 19.1054 20.4444 19.1113 20.5913 19.0715C20.7383 19.0318 20.8696 18.9482 20.968 18.832L21.0102 18.7828C21.8258 17.8195 22.4516 16.7344 22.8758 15.5554L22.8969 15.4945C22.9344 15.3844 22.9461 15.2672 22.932 15.1547Z" fill="white" fill-opacity="0.15"/>
<path d="M17.125 11.7656C17.125 11.0555 16.9445 10.3852 16.6281 9.80156C15.9297 8.51484 14.568 7.64062 13 7.64062C10.7219 7.64062 8.875 9.4875 8.875 11.7656C8.875 13.3336 9.74922 14.6953 11.0359 15.3937C11.6195 15.7102 12.2875 15.8906 13 15.8906C15.2781 15.8906 17.125 14.0437 17.125 11.7656ZM10.375 11.7656C10.375 11.0648 10.6492 10.4062 11.1437 9.90937C11.6406 9.4125 12.2992 9.14062 13 9.14062C13.7008 9.14062 14.3594 9.4125 14.8563 9.90937C15.1004 10.1528 15.294 10.4422 15.426 10.7607C15.5579 11.0793 15.6255 11.4208 15.625 11.7656C15.625 12.4664 15.3508 13.125 14.8563 13.6219C14.6128 13.866 14.3234 14.0597 14.0049 14.1916C13.6863 14.3235 13.3448 14.3912 13 14.3906C12.2992 14.3906 11.6406 14.1164 11.1437 13.6219C10.8996 13.3784 10.706 13.0891 10.574 12.7705C10.4421 12.4519 10.3745 12.1104 10.375 11.7656Z" fill="white"/>
<path d="M14.925 22.3172C15.075 22.29 15.2132 22.2178 15.3212 22.1102C15.4292 22.0026 15.5019 21.8647 15.5297 21.7148L15.8977 19.7226C16.7458 19.4047 17.5353 18.9485 18.2344 18.3726L20.1398 19.05C20.2834 19.1007 20.4389 19.1066 20.5859 19.0669C20.7328 19.0271 20.8642 18.9435 20.9625 18.8273L21.0047 18.7781C21.8203 17.8148 22.4484 16.7273 22.8727 15.5461L22.8938 15.4851C22.9336 15.3773 22.9453 15.2648 22.9336 15.1547C22.9125 14.9695 22.8234 14.7937 22.6758 14.6648L21.1453 13.3547L21.1406 13.3523C21.2133 12.907 21.2508 12.4523 21.2508 11.9976C21.2508 11.6015 21.2227 11.2031 21.1664 10.814C21.1594 10.7625 21.15 10.7109 21.143 10.6594C21.143 10.6547 21.1406 10.6476 21.1406 10.6429L22.6758 9.33044C22.8375 9.19216 22.9313 8.99294 22.9383 8.78669C22.9406 8.69294 22.9266 8.59685 22.8938 8.50544L22.8727 8.44451C22.4501 7.26331 21.8172 6.16833 21.0047 5.21248L20.9625 5.16326C20.8639 5.04736 20.7326 4.96405 20.5857 4.92431C20.4389 4.88456 20.2834 4.89024 20.1398 4.9406L18.2344 5.61794C17.5313 5.04138 16.7484 4.58669 15.9 4.26794H15.8977L15.5297 2.27576C15.5273 2.26404 15.525 2.24998 15.5203 2.23826C15.4865 2.09655 15.4122 1.96773 15.3065 1.86745C15.2008 1.76718 15.0683 1.69977 14.925 1.67341L14.8617 1.66169C13.6406 1.44138 12.3563 1.44138 11.1352 1.66169L11.0719 1.67341C10.9219 1.70059 10.7837 1.77277 10.6757 1.88036C10.5677 1.98795 10.495 2.12586 10.4672 2.27576L10.0969 4.27732C9.25522 4.59615 8.47142 5.0506 7.77657 5.62263L5.85704 4.9406C5.71352 4.88984 5.55795 4.88395 5.41101 4.92372C5.26407 4.9635 5.1327 5.04704 5.03438 5.16326L4.99219 5.21248C4.18065 6.16901 3.54791 7.26381 3.12422 8.44451L3.10313 8.50544C3.05429 8.64166 3.04578 8.78907 3.07862 8.93C3.11146 9.07092 3.18426 9.19939 3.28829 9.29998C3.3 9.30935 3.30938 9.32107 3.3211 9.33044L4.875 10.657V10.6594C4.80235 11.1 4.76719 11.5476 4.76719 11.9953C4.76719 12.4453 4.80235 12.8953 4.875 13.3336L3.3211 14.6601C3.20531 14.7593 3.12243 14.8913 3.0835 15.0387C3.04456 15.186 3.05141 15.3418 3.10313 15.4851L3.12422 15.5461C3.54844 16.7273 4.17657 17.8172 4.99219 18.7781L5.03438 18.8273C5.14922 18.9609 5.30157 19.0476 5.46797 19.0781C5.59454 19.1015 5.72813 19.0945 5.85704 19.05L7.77657 18.3679C7.77891 18.3703 7.7836 18.3726 7.78594 18.375C8.48204 18.9445 9.25782 19.3969 10.0969 19.7133L10.4672 21.7148C10.495 21.8647 10.5677 22.0026 10.6757 22.1102C10.7837 22.2178 10.9219 22.29 11.0719 22.3172L11.1352 22.3289C11.7469 22.439 12.3727 22.4953 12.9984 22.4953H13.0055C13.6289 22.4953 14.2547 22.439 14.8617 22.3289L14.925 22.3172ZM13.9922 20.7586C13.3302 20.8336 12.6619 20.8336 12 20.7586L11.5805 18.4804L10.6945 18.1406C10.0266 17.8875 9.40547 17.5265 8.85 17.0695L8.11407 16.4625L5.925 17.2406C5.52657 16.7039 5.19375 16.125 4.92657 15.5156L6.6961 14.0039L6.54376 13.0664C6.4875 12.7172 6.45704 12.3562 6.45704 12C6.45704 11.6414 6.48516 11.2828 6.54376 10.9336L6.6961 9.99607L4.92657 8.48435C5.19141 7.87263 5.52657 7.29607 5.925 6.75935L8.11407 7.53748L8.85 6.93044C9.40547 6.47341 10.0266 6.11248 10.6945 5.85935L11.5828 5.52419L12.0023 3.24607C12.6609 3.17107 13.3336 3.17107 13.9945 3.24607L14.4141 5.51951L15.307 5.85466C15.9797 6.10779 16.6055 6.46873 17.1656 6.9281L17.9016 7.53279L20.0766 6.76169C20.475 7.29841 20.8078 7.87732 21.075 8.48669L19.3242 9.98435L19.4766 10.9195C19.5352 11.2734 19.5656 11.6367 19.5656 12C19.5656 12.3633 19.5352 12.7265 19.4766 13.0804L19.3219 14.0203L21.0727 15.5179C20.8073 16.1294 20.4722 16.7082 20.0742 17.2429L17.8992 16.4719L17.1633 17.0765C16.6031 17.5359 15.9797 17.8969 15.3047 18.15L14.4117 18.4851L13.9922 20.7586Z" fill="white"/>
</g>
<defs>
<clipPath id="clip0_80_465">
<rect width="24" height="24" fill="white"/>
</clipPath>
</defs>
</svg>
